<svg width="33" height="33" viewBox="0 0 33 33" fill="none" xmlns="http://www.w3.org/2000/svg">
<g clip-path="url(#clip0_1614_269)">
<path fill-rule="evenodd" clip-rule="evenodd" d="M4.39262 6.71375C2.32995 6.71375 1.12328 5.48441 1.29795 3.24707H31.7393C31.914 5.48441 30.7073 6.71375 28.6447 6.71375H4.39262Z" stroke="#D7926D" stroke-width="1.5" stroke-miterlimit="79.8403" stroke-linecap="round" stroke-linejoin="round"/>
<path d="M4.27344 7.3457V25.7524" stroke="#D7926D" stroke-width="1.5" stroke-miterlimit="79.8403" stroke-linecap="round" stroke-linejoin="round"/>
<path d="M28.7422 7.2627V25.6693" stroke="#D7926D" stroke-width="1.5" stroke-miterlimit="79.8403" stroke-linecap="round" stroke-linejoin="round"/>
<path fill-rule="evenodd" clip-rule="evenodd" d="M4.39262 26.2119C2.32995 26.2119 1.12328 27.4412 1.29795 29.6785H31.7393C31.914 27.4412 30.7073 26.2119 28.6447 26.2119H4.39262Z" stroke="#D7926D" stroke-width="1.5" stroke-miterlimit="79.8403" stroke-linecap="round" stroke-linejoin="round"/>
<path d="M9.25042 25.4853V18.368C9.21575 14.8813 11.3344 11.248 16.5077 11.248C21.6811 11.248 23.7864 14.8813 23.7517 18.368V25.4853" stroke="#D7926D" stroke-width="1.5" stroke-miterlimit="79.8403" stroke-linecap="round" stroke-linejoin="round"/>
</g>
<defs>
<clipPath id="clip0_1614_269">
<rect width="32" height="32" fill="white" transform="translate(0.5 0.5)"/>
</clipPath>
</defs>
</svg>
