<svg width="20" height="48" viewBox="0 0 20 48" fill="none" xmlns="http://www.w3.org/2000/svg">
<g clip-path="url(#clip0_360_47379)">
<path d="M10.6672 0L10.6672 47.6087H9.33384L9.33384 0L10.6672 0ZM10.0005 47.6087C9.33384 47.6087 9.33384 47.6084 9.33384 47.6087C9.33384 47.6091 9.33384 47.6088 9.33384 47.6087C9.33384 47.6077 9.33384 47.6063 9.33371 47.6031C9.33371 47.5965 9.33344 47.5856 9.33304 47.5704C9.33224 47.5399 9.33064 47.4921 9.32717 47.4289C9.32037 47.3025 9.30637 47.1144 9.27784 46.8776C9.22077 46.4033 9.10624 45.7384 8.87677 44.9859C8.41704 43.4773 7.50731 41.6501 5.70797 40.2744L6.51797 39.2152C8.60611 40.812 9.64011 42.9168 10.1522 44.5971C10.4088 45.4389 10.5372 46.1827 10.6016 46.7184C10.6338 46.9867 10.6502 47.2039 10.6585 47.3565C10.6628 47.4328 10.6649 47.4932 10.666 47.5357C10.6665 47.5571 10.6668 47.5739 10.667 47.5861C10.667 47.5923 10.667 47.5972 10.6672 47.6009C10.6672 47.6028 10.6672 47.6044 10.6672 47.6057C10.6672 47.6064 10.6672 47.6081 10.6672 47.6087C10.6672 47.6085 10.6672 47.6089 10.6672 47.6087C10.6672 47.6089 10.6672 47.6087 10.0005 47.6087ZM5.70797 40.2744C4.70531 39.5076 3.4062 39.0568 2.31911 38.8001C1.78204 38.6733 1.31092 38.5972 0.975347 38.5528C0.807827 38.5307 0.674827 38.5167 0.585133 38.5081C0.540307 38.5039 0.50636 38.5011 0.4844 38.4993C0.473427 38.4985 0.46544 38.498 0.4606 38.4976C0.458187 38.4975 0.456547 38.4973 0.45572 38.4972C0.455734 38.4972 0.455307 38.4972 0.45572 38.4972C0.45584 38.4972 0.455653 38.4972 0.497653 37.8319C0.539667 37.1665 0.539827 37.1665 0.54 37.1665C0.539854 37.1665 0.54008 37.1665 0.54 37.1665C0.540307 37.1665 0.541067 37.1667 0.54148 37.1667C0.542293 37.1668 0.543307 37.1668 0.544534 37.1669C0.546987 37.1671 0.550253 37.1673 0.55432 37.1676C0.562467 37.1681 0.573814 37.1689 0.588227 37.1701C0.617067 37.1724 0.658213 37.1757 0.710533 37.1807C0.81512 37.1907 0.964627 37.2065 1.15 37.2311C1.52021 37.2799 2.03641 37.3635 2.62549 37.5025C3.79072 37.7776 5.29931 38.2833 6.51797 39.2152L5.70797 40.2744ZM10.0005 47.6087C9.33384 47.6087 9.33384 47.6084 9.33384 47.6087C9.33384 47.6091 9.33384 47.6088 9.33384 47.6087C9.33384 47.6081 9.33384 47.6064 9.33384 47.6057C9.33384 47.6044 9.33384 47.6028 9.33384 47.6009C9.33384 47.5972 9.33397 47.5923 9.33397 47.5861C9.33411 47.5739 9.33437 47.5571 9.33504 47.5357C9.33611 47.4932 9.33824 47.4328 9.34237 47.3565C9.35064 47.2039 9.36704 46.9867 9.39931 46.7184C9.46371 46.1827 9.59211 45.4389 9.84877 44.5971C10.3609 42.9168 11.3948 40.812 13.483 39.2152L14.2929 40.2744C12.4937 41.6501 11.5838 43.4773 11.1241 44.9859C10.8948 45.7384 10.7801 46.4033 10.7232 46.8776C10.6946 47.1144 10.6806 47.3025 10.6737 47.4289C10.6704 47.4921 10.6686 47.5399 10.6678 47.5704C10.6674 47.5856 10.6673 47.5965 10.6672 47.6031C10.6672 47.6063 10.6672 47.6077 10.6672 47.6087C10.6672 47.6085 10.6672 47.6089 10.6672 47.6087C10.6672 47.6089 10.6672 47.6087 10.0005 47.6087ZM13.483 39.2152C14.7017 38.2833 16.2102 37.7776 17.3754 37.5025C17.9645 37.3635 18.4808 37.2799 18.8509 37.2311C19.0364 37.2065 19.1858 37.1907 19.2904 37.1807C19.3428 37.1757 19.3838 37.1724 19.4128 37.1701C19.4272 37.1689 19.4385 37.1681 19.4466 37.1676C19.4508 37.1673 19.454 37.1671 19.4564 37.1669C19.4577 37.1668 19.4586 37.1668 19.4594 37.1667C19.4592 37.1667 19.4598 37.1667 19.4594 37.1667C19.4596 37.1667 19.4609 37.1665 19.4609 37.1665C19.4612 37.1665 19.4613 37.1665 19.5033 37.8319C19.5453 38.4972 19.5454 38.4972 19.5456 38.4972C19.5446 38.4973 19.5428 38.4975 19.5404 38.4976C19.5356 38.498 19.5276 38.4985 19.5165 38.4993C19.4946 38.5011 19.4606 38.5039 19.4158 38.5081C19.3261 38.5167 19.1932 38.5307 19.0256 38.5528C18.6901 38.5972 18.2189 38.6733 17.6818 38.8001C16.5948 39.0568 15.2957 39.5076 14.2929 40.2744L13.483 39.2152Z" fill="#1A1A1A"/>
</g>
<defs>
<clipPath id="clip0_360_47379">
<rect width="48" height="20" fill="white" transform="matrix(0 1 1 0 0 0)"/>
</clipPath>
</defs>
</svg>
