<svg width="48" height="20" viewBox="0 0 48 20" fill="none" xmlns="http://www.w3.org/2000/svg">
<g >
<path d="M0 9.33283H47.6087V10.6662H0L0 9.33283ZM47.6087 9.99949C47.6087 10.6662 47.6084 10.6662 47.6087 10.6662C47.6088 10.6662 47.6091 10.6662 47.6087 10.6662C47.6077 10.6662 47.6063 10.6662 47.6031 10.6663C47.5965 10.6663 47.5856 10.6666 47.5704 10.667C47.5399 10.6678 47.4921 10.6694 47.4289 10.6728C47.3025 10.6796 47.1144 10.6936 46.8776 10.7222C46.4033 10.7792 45.7384 10.8938 44.9859 11.1232C43.4773 11.583 41.6501 12.4927 40.2744 14.292L39.2152 13.482C40.812 11.3939 42.9168 10.3599 44.5971 9.84776C45.4389 9.59123 46.1827 9.46283 46.7184 9.39843C46.9867 9.36616 47.2039 9.34976 47.3565 9.34149C47.4328 9.33723 47.4932 9.33509 47.5357 9.33403C47.5571 9.33349 47.5739 9.33323 47.5861 9.33296C47.5923 9.33296 47.5972 9.33296 47.6009 9.33283C47.6028 9.33283 47.6044 9.33283 47.6057 9.33283C47.6064 9.33283 47.6081 9.33283 47.6087 9.33283C47.6085 9.33283 47.6089 9.33283 47.6087 9.33283C47.6089 9.33283 47.6087 9.33283 47.6087 9.99949ZM40.2744 14.292C39.5076 15.2947 39.0568 16.5938 38.8001 17.6809C38.6733 18.218 38.5972 18.6891 38.5528 19.0247C38.5307 19.1922 38.5167 19.3252 38.5081 19.4149C38.5039 19.4597 38.5011 19.4936 38.4993 19.5156C38.4985 19.5266 38.498 19.5346 38.4976 19.5394C38.4975 19.5418 38.4973 19.5435 38.4972 19.5443C38.4972 19.5447 38.4972 19.5443 38.4972 19.5443C38.4972 19.5442 38.4972 19.5443 37.8319 19.5023C37.1665 19.4603 37.1665 19.4602 37.1665 19.46C37.1665 19.4601 37.1665 19.4599 37.1665 19.46C37.1665 19.4597 37.1667 19.4589 37.1667 19.4585C37.1668 19.4577 37.1668 19.4567 37.1669 19.4555C37.1671 19.453 37.1673 19.4497 37.1676 19.4457C37.1681 19.4375 37.1689 19.4262 37.1701 19.4118C37.1724 19.3829 37.1757 19.3418 37.1807 19.2895C37.1907 19.1849 37.2065 19.0354 37.2311 18.85C37.2799 18.4798 37.3635 17.9636 37.5025 17.3745C37.7776 16.2093 38.2833 14.7007 39.2152 13.482L40.2744 14.292ZM47.6087 9.99949C47.6087 10.6662 47.6084 10.6662 47.6087 10.6662C47.6088 10.6662 47.6091 10.6662 47.6087 10.6662C47.6081 10.6662 47.6064 10.6662 47.6057 10.6662C47.6044 10.6662 47.6028 10.6662 47.6009 10.6662C47.5972 10.6662 47.5923 10.666 47.5861 10.666C47.5739 10.6659 47.5571 10.6656 47.5357 10.665C47.4932 10.6639 47.4328 10.6618 47.3565 10.6576C47.2039 10.6494 46.9867 10.633 46.7184 10.6007C46.1827 10.5363 45.4389 10.4079 44.5971 10.1512C42.9168 9.63909 40.812 8.60523 39.2152 6.51696L40.2744 5.70709C41.6501 7.50629 43.4773 8.41616 44.9859 8.87589C45.7384 9.10523 46.4033 9.21989 46.8776 9.27683C47.1144 9.30536 47.3025 9.31936 47.4289 9.32629C47.4921 9.32963 47.5399 9.33136 47.5704 9.33216C47.5856 9.33256 47.5965 9.33269 47.6031 9.33283C47.6063 9.33283 47.6077 9.33283 47.6087 9.33283C47.6085 9.33283 47.6089 9.33283 47.6087 9.33283C47.6089 9.33283 47.6087 9.33283 47.6087 9.99949ZM39.2152 6.51696C38.2833 5.29829 37.7776 3.78976 37.5025 2.62456C37.3635 2.03549 37.2799 1.51923 37.2311 1.14909C37.2065 0.963625 37.1907 0.814159 37.1807 0.709625C37.1757 0.657227 37.1724 0.616158 37.1701 0.587225C37.1689 0.572824 37.1681 0.561491 37.1676 0.553358C37.1673 0.549225 37.1671 0.546026 37.1669 0.543625C37.1668 0.542292 37.1668 0.541359 37.1667 0.540558C37.1667 0.540825 37.1667 0.540159 37.1667 0.540558C37.1667 0.540424 37.1665 0.539091 37.1665 0.539091C37.1665 0.538824 37.1665 0.538692 37.8319 0.496693C38.4972 0.454693 38.4972 0.454559 38.4972 0.454426C38.4973 0.455359 38.4975 0.457226 38.4976 0.459625C38.498 0.464426 38.4985 0.472427 38.4993 0.483494C38.5011 0.50536 38.5039 0.539358 38.5081 0.584158C38.5167 0.673891 38.5307 0.806824 38.5528 0.974424C38.5972 1.30989 38.6733 1.78109 38.8001 2.31816C39.0568 3.40523 39.5076 4.70429 40.2744 5.70709L39.2152 6.51696Z" fill="#1A1A1A"/>
</g>
</svg>
