<svg width="33" height="34" viewBox="0 0 33 34" fill="none" xmlns="http://www.w3.org/2000/svg">
<g clip-path="url(#clip0_1614_323)">
<path d="M8.26562 16.7129V9.71289C8.26562 4.71289 11.5736 1.71289 15.9843 1.71289" stroke="#D7926D" stroke-width="1.5" stroke-miterlimit="79.8403" stroke-linecap="round" stroke-linejoin="round"/>
<path fill-rule="evenodd" clip-rule="evenodd" d="M4.27022 31.944V23.5413C4.27022 22.3306 2.07422 19.3506 3.30355 19.46H28.7036C29.9329 19.3506 27.7369 22.3306 27.7369 23.5413V31.944H4.27022Z" stroke="#D7926D" stroke-width="1.5" stroke-miterlimit="79.8403" stroke-linecap="round" stroke-linejoin="round"/>
<path d="M23.7004 16.7129V9.71289C23.7004 4.71289 20.3924 1.71289 15.9844 1.71289" stroke="#D7926D" stroke-width="1.5" stroke-miterlimit="79.8403" stroke-linecap="round" stroke-linejoin="round"/>
<path d="M13.0312 4.28711V16.6031" stroke="#D7926D" stroke-width="1.5" stroke-miterlimit="79.8403" stroke-linecap="round" stroke-linejoin="round"/>
<path d="M21.3614 10.4229H10.6094" stroke="#D7926D" stroke-width="1.5" stroke-miterlimit="79.8403" stroke-linecap="round" stroke-linejoin="round"/>
<path d="M9.97656 31.7549V21.7549" stroke="#D7926D" stroke-width="1.5" stroke-miterlimit="79.8403" stroke-linecap="round" stroke-linejoin="round"/>
<path d="M15.9766 31.7549V21.7549" stroke="#D7926D" stroke-width="1.5" stroke-miterlimit="79.8403" stroke-linecap="round" stroke-linejoin="round"/>
<path d="M21.9766 31.7549V21.7549" stroke="#D7926D" stroke-width="1.5" stroke-miterlimit="79.8403" stroke-linecap="round" stroke-linejoin="round"/>
<path d="M19.0312 4.28711V16.6031" stroke="#D7926D" stroke-width="1.5" stroke-miterlimit="79.8403" stroke-linecap="round" stroke-linejoin="round"/>
</g>
<defs>
<clipPath id="clip0_1614_323">
<rect width="32" height="33" fill="white" transform="translate(0.5 0.5)"/>
</clipPath>
</defs>
</svg>
