<svg width="33" height="33" viewBox="0 0 33 33" fill="none" xmlns="http://www.w3.org/2000/svg">
<path d="M21.4138 24.427L22.8724 15.7736C23.1858 14.0603 22.4831 13.5843 21.4991 13.499H3.02446C2.0218 13.499 1.64713 14.2563 1.82313 15.119L4.03913 27.1963C4.2698 28.611 5.16847 29.499 6.6778 29.499L18.1391 29.5136C18.6231 29.5136 19.0418 29.4456 19.4004 29.3043" stroke="#D7926D" stroke-width="1.5" stroke-miterlimit="79.8403" stroke-linecap="round" stroke-linejoin="round"/>
<path d="M10.8406 2.19824C9.20596 3.63824 9.49397 4.99424 10.7579 6.23824C12.2059 7.8529 11.8926 8.84359 10.7979 10.2463" stroke="#D7926D" stroke-width="1.5" stroke-miterlimit="79.8403" stroke-linecap="round" stroke-linejoin="round"/>
<path d="M16.829 2.22168C15.197 3.66568 15.4877 5.02169 16.7543 6.26302C18.2063 7.87502 17.8943 8.86704 16.8023 10.271" stroke="#D7926D" stroke-width="1.5" stroke-miterlimit="79.8403" stroke-linecap="round" stroke-linejoin="round"/>
<path d="M2.5 17.7783H22.5" stroke="#D7926D" stroke-width="1.5" stroke-miterlimit="79.8403" stroke-linecap="round" stroke-linejoin="round"/>
<path d="M15.9844 18.6357L14.9844 27.4984" stroke="#D7926D" stroke-width="1.5" stroke-miterlimit="79.8403" stroke-linecap="round" stroke-linejoin="round"/>
<path d="M8.98438 18.6357L9.50704 27.4984" stroke="#D7926D" stroke-width="1.5" stroke-miterlimit="79.8403" stroke-linecap="round" stroke-linejoin="round"/>
<path d="M31.2464 10.9385C28.6198 14.0718 28.3598 17.2945 27.2784 23.5585C26.5878 27.3399 25.2318 29.7145 22.1344 29.7145C19.3824 29.7145 17.8624 27.6092 17.5078 24.7065H26.2584" stroke="#D7926D" stroke-width="1.5" stroke-miterlimit="79.8403" stroke-linecap="round" stroke-linejoin="round"/>
</svg>
