<svg width="24" height="25" viewBox="0 0 24 25" fill="none" xmlns="http://www.w3.org/2000/svg">
<path d="M16 3.79053V5.79053" stroke="#7A8084" stroke-width="1.5" stroke-linecap="round" stroke-linejoin="round"/>
<path d="M7 3.79053V5.79053" stroke="#7A8084" stroke-width="1.5" stroke-linecap="round" stroke-linejoin="round"/>
<path d="M3 9.79053H20" stroke="#7A8084" stroke-width="1.5" stroke-linecap="round" stroke-linejoin="round"/>
<path d="M20 10.7905V7.79053C20 6.13353 18.657 4.79053 17 4.79053H6C4.343 4.79053 3 6.13353 3 7.79053V16.7905C3 18.4475 4.343 19.7905 6 19.7905H9" stroke="#7A8084" stroke-width="1.5" stroke-linecap="round" stroke-linejoin="round"/>
<path fill-rule="evenodd" clip-rule="evenodd" d="M18.6932 14.3955L21.7392 19.8095C22.4892 21.1425 21.5262 22.7905 19.9962 22.7905H13.9052C12.3752 22.7905 11.4122 21.1435 12.1622 19.8095L15.2082 14.3955C15.9712 13.0355 17.9282 13.0355 18.6932 14.3955Z" stroke="#7A8084" stroke-width="1.5" stroke-linecap="round" stroke-linejoin="round"/>
<path d="M16.9512 18.2105V16.3755" stroke="#7A8084" stroke-width="1.5" stroke-linecap="round" stroke-linejoin="round"/>
<path d="M16.9507 20.2347C16.9007 20.2347 16.8597 20.2757 16.8607 20.3257C16.8607 20.3757 16.9017 20.4167 16.9517 20.4167C17.0017 20.4167 17.0417 20.3757 17.0417 20.3257C17.0417 20.2757 17.0017 20.2347 16.9507 20.2347" stroke="#7A8084" stroke-width="1.5" stroke-linecap="round" stroke-linejoin="round"/>
</svg>
