<svg width="36" height="36" viewBox="0 0 36 36" fill="none" xmlns="http://www.w3.org/2000/svg">
<path d="M24 9.75V5.25C24 4.25544 23.6049 3.3016 22.9017 2.59834C22.1984 1.89508 21.2445 1.5 20.25 1.5H6.75C5.75544 1.5 4.8016 1.89508 4.09834 2.59834C3.39508 3.3016 3 4.25544 3 5.25V20.0559L9.5559 13.5H20.25C21.2445 13.5 22.1984 13.1049 22.9017 12.4017C23.6049 11.6984 24 10.7446 24 9.75ZM8.9346 12L8.49525 12.4394L4.5 16.4346V5.25C4.50067 4.65347 4.73795 4.08156 5.15976 3.65976C5.58156 3.23795 6.15347 3.00067 6.75 3H20.25C20.8465 3.00067 21.4185 3.23795 21.8403 3.65976C22.2621 4.08156 22.4993 4.65347 22.5 5.25V9.75C22.4993 10.3465 22.2621 10.9184 21.8403 11.3402C21.4185 11.7621 20.8465 11.9993 20.25 12H8.9346ZM29.25 16.5H15.75C14.7554 16.5 13.8016 16.8951 13.0983 17.5983C12.3951 18.3016 12 19.2555 12 20.25V24.75C12 25.7445 12.3951 26.6983 13.0983 27.4017C13.8016 28.1049 14.7554 28.5 15.75 28.5H26.4441L33 35.0559V20.25C33 19.2555 32.6049 18.3016 31.9017 17.5983C31.1983 16.8951 30.2445 16.5 29.25 16.5ZM31.5 31.4346L27.5047 27.4394L27.0654 27H15.75C15.1535 26.9993 14.5816 26.7621 14.1598 26.3403C13.7379 25.9185 13.5007 25.3465 13.5 24.75V20.25C13.5007 19.6535 13.7379 19.0815 14.1598 18.6597C14.5816 18.2379 15.1535 18.0007 15.75 18H29.25C29.8465 18.0007 30.4185 18.2379 30.8403 18.6597C31.2621 19.0815 31.4993 19.6535 31.5 20.25V31.4346Z" fill="white"/>
</svg>
