<svg width="16" height="16" viewBox="0 0 16 16" fill="none" xmlns="http://www.w3.org/2000/svg">
<path d="M8.0026 1.3335C6.68407 1.3335 5.39513 1.72449 4.2988 2.45703C3.20248 3.18958 2.348 4.23076 1.84341 5.44894C1.33882 6.6671 1.2068 8.00756 1.46404 9.30076C1.72127 10.594 2.35621 11.7818 3.28856 12.7142C4.22091 13.6466 5.4088 14.2815 6.702 14.5388C7.9952 14.796 9.33567 14.664 10.5538 14.1594C11.772 13.6548 12.8132 12.8003 13.5457 11.704C14.2783 10.6076 14.6693 9.3187 14.6693 8.00016C14.6693 7.1247 14.4968 6.25778 14.1618 5.44894C13.8268 4.6401 13.3357 3.90518 12.7167 3.28612C12.0976 2.66706 11.3627 2.176 10.5538 1.84096C9.745 1.50594 8.87807 1.3335 8.0026 1.3335ZM9.86327 9.3895L9.39194 9.86083L8.0026 8.4715L6.61327 9.86083L6.14194 9.3895L7.53127 8.00016L6.14194 6.61083L6.61327 6.1395L8.0026 7.52883L9.39194 6.1395L9.86327 6.61083L8.47394 8.00016L9.86327 9.3895Z" fill="#EA6E5E"/>
</svg>
