<svg width="33" height="34" viewBox="0 0 33 34" fill="none" xmlns="http://www.w3.org/2000/svg">
<g clip-path="url(#clip0_1614_308)">
<path fill-rule="evenodd" clip-rule="evenodd" d="M5.21094 7.22441V26.2044C5.21094 27.8084 6.45494 29.1124 7.98294 29.1124C9.51227 29.1124 10.7563 27.8084 10.7563 26.2044V7.22441C10.7563 5.62041 9.5136 4.31641 7.98427 4.31641C6.45627 4.31641 5.21094 5.62041 5.21094 7.22441Z" stroke="#D7926D" stroke-width="1.5" stroke-miterlimit="79.8403"/>
<path d="M4.7043 8.31055C2.80696 8.31055 1.26562 9.86789 1.26562 11.7852V21.6426C1.26562 23.5599 2.80696 25.1172 4.7043 25.1172" stroke="#D7926D" stroke-width="1.5" stroke-miterlimit="79.8403" stroke-linecap="round" stroke-linejoin="round"/>
<path fill-rule="evenodd" clip-rule="evenodd" d="M27.7569 7.22441V26.2044C27.7569 27.8084 26.5209 29.1124 25.0009 29.1124C23.4782 29.1124 22.2422 27.8084 22.2422 26.2044V7.22441C22.2422 5.62041 23.4769 4.31641 24.9996 4.31641C26.5196 4.31641 27.7569 5.62041 27.7569 7.22441Z" stroke="#D7926D" stroke-width="1.5" stroke-miterlimit="79.8403"/>
<path d="M28.3203 8.31055C30.2176 8.31055 31.759 9.86789 31.759 11.7852V21.6426C31.759 23.5599 30.2176 25.1172 28.3203 25.1172" stroke="#D7926D" stroke-width="1.5" stroke-miterlimit="79.8403" stroke-linecap="round" stroke-linejoin="round"/>
<path d="M21.9842 16.3164H11.0469" stroke="#D7926D" stroke-width="1.5" stroke-miterlimit="79.8403" stroke-linecap="round" stroke-linejoin="round"/>
</g>
<defs>
<clipPath id="clip0_1614_308">
<rect width="32" height="33" fill="white" transform="translate(0.5 0.5)"/>
</clipPath>
</defs>
</svg>
