<svg width="34" height="34" viewBox="0 0 34 34" fill="none" xmlns="http://www.w3.org/2000/svg">
<g clip-path="url(#clip0_1614_405)">
<path fill-rule="evenodd" clip-rule="evenodd" d="M16.491 23.9605C9.50434 19.6498 9.50167 10.7138 16.491 4.71777C23.479 10.7138 23.4764 19.6498 16.491 23.9605Z" stroke="#D7926D" stroke-width="1.5" stroke-miterlimit="79.8403" stroke-linecap="round" stroke-linejoin="round"/>
<path d="M26.954 18.0039C28.546 18.3105 30.1833 18.9906 31.766 20.0732C28.5367 26.8039 21.5367 28.6785 16.6953 24.1119" stroke="#D7926D" stroke-width="1.5" stroke-miterlimit="79.8403" stroke-linecap="round" stroke-linejoin="round"/>
<path d="M21.3894 12.0653C23.0934 11.1133 25.1614 10.556 27.4881 10.5293C28.7721 18.7493 23.8454 24.944 16.8828 23.868" stroke="#D7926D" stroke-width="1.5" stroke-miterlimit="79.8403" stroke-linecap="round" stroke-linejoin="round"/>
<path d="M6.07763 18.0039C4.48563 18.3105 2.84829 18.9906 1.26562 20.0732C4.49496 26.8039 11.495 28.6785 16.3363 24.1119" stroke="#D7926D" stroke-width="1.5" stroke-miterlimit="79.8403" stroke-linecap="round" stroke-linejoin="round"/>
<path d="M11.6386 12.0653C9.93458 11.1133 7.86657 10.556 5.5399 10.5293C4.2559 18.7493 9.18257 24.944 16.1453 23.868" stroke="#D7926D" stroke-width="1.5" stroke-miterlimit="79.8403" stroke-linecap="round" stroke-linejoin="round"/>
</g>
<defs>
<clipPath id="clip0_1614_405">
<rect width="33" height="33" fill="white" transform="translate(0.5 0.5)"/>
</clipPath>
</defs>
</svg>
