<svg width="28" height="28" viewBox="0 0 28 28" fill="none" xmlns="http://www.w3.org/2000/svg">
<path fill-rule="evenodd" clip-rule="evenodd" d="M22.668 14.2121C22.668 13.5503 22.6095 12.9139 22.501 12.303H13.8516V15.9133H18.7941C18.5812 17.08 17.9342 18.0685 16.9616 18.7303V21.0721H19.9296C21.6661 19.4473 22.668 17.0545 22.668 14.2121Z" fill="#4E8580"/>
<path fill-rule="evenodd" clip-rule="evenodd" d="M13.8516 23.3333C16.3312 23.3333 18.4101 22.4976 19.9296 21.0721L16.9616 18.7303C16.1392 19.2903 15.0873 19.6212 13.8516 19.6212C11.4597 19.6212 9.43513 17.9794 8.71296 15.7733H5.64478V18.1915C7.15591 21.2418 10.2617 23.3333 13.8516 23.3333Z" fill="#4E8580"/>
<path fill-rule="evenodd" clip-rule="evenodd" d="M8.71296 15.7733C8.52929 15.2133 8.42493 14.6151 8.42493 14C8.42493 13.3848 8.52929 12.7866 8.71296 12.2266V9.80846H5.64478C5.02279 11.0685 4.66797 12.4939 4.66797 14C4.66797 15.506 5.0228 16.9315 5.64478 18.1915L8.71296 15.7733Z" fill="#4E8580"/>
<path fill-rule="evenodd" clip-rule="evenodd" d="M13.8516 8.37875C15.2 8.37875 16.4106 8.84966 17.3623 9.77451L19.9964 7.09754C18.4059 5.59147 16.3271 4.66663 13.8516 4.66663C10.2617 4.66663 7.15591 6.75815 5.64478 9.80846L8.71296 12.2266C9.43513 10.0206 11.4597 8.37875 13.8516 8.37875Z" fill="#4E8580"/>
</svg>
