<svg width="24" height="25" viewBox="0 0 24 25" fill="none" xmlns="http://www.w3.org/2000/svg">
<path fill-rule="evenodd" clip-rule="evenodd" d="M3 11.5814C3 14.2644 4.42 16.6264 6.599 18.1154C6.598 18.9704 6.6 20.1224 6.6 21.3314L10.131 19.5844C10.735 19.7004 11.359 19.7634 12 19.7634C16.952 19.7634 21 16.1204 21 11.5814C21 7.04241 16.952 3.39941 12 3.39941C7.048 3.39941 3 7.04241 3 11.5814Z" stroke="#7A8084" stroke-width="1.5" stroke-linecap="round" stroke-linejoin="round"/>
<path d="M11.8992 12.6185V12.4115C11.8992 11.7335 12.3182 11.3665 12.7382 11.0845C13.1482 10.8085 13.5592 10.4485 13.5592 9.78449C13.5592 8.86749 12.8162 8.12549 11.9002 8.12549C10.9842 8.12549 10.2402 8.86649 10.2402 9.78349" stroke="#7A8084" stroke-width="1.5" stroke-linecap="round" stroke-linejoin="round"/>
<path d="M11.8974 14.9574C11.8144 14.9574 11.7474 15.0244 11.7484 15.1074C11.7484 15.1904 11.8154 15.2574 11.8984 15.2574C11.9814 15.2574 12.0484 15.1904 12.0484 15.1074C12.0484 15.0244 11.9824 14.9574 11.8974 14.9574" stroke="#7A8084" stroke-width="1.5" stroke-linecap="round" stroke-linejoin="round"/>
</svg>
