<svg width="33" height="33" viewBox="0 0 33 33" fill="none" xmlns="http://www.w3.org/2000/svg">
<g clip-path="url(#clip0_1614_372)">
<path d="M23.6784 7.69116L19.0078 5.17383" stroke="#D7926D" stroke-width="1.5" stroke-miterlimit="79.8403" stroke-linecap="round" stroke-linejoin="round"/>
<path d="M16.01 4.29492C15.3447 4.35225 14.7073 4.52025 14.1953 4.79492" stroke="#D7926D" stroke-width="1.5" stroke-miterlimit="79.8403" stroke-linecap="round" stroke-linejoin="round"/>
<path d="M6.7714 8.79109L2.26206 11.2298C0.96473 11.9285 0.96473 13.0671 2.26206 13.7671L14.1661 20.1991C15.4621 20.8991 17.5674 20.8992 18.8634 20.2005L30.7701 13.7658C32.0661 13.0672 32.0661 11.9285 30.7701 11.2285L26.2088 8.73242" stroke="#D7926D" stroke-width="1.5" stroke-miterlimit="79.8403" stroke-linecap="round" stroke-linejoin="round"/>
<path d="M1.28715 12.877L1.25781 23.5064C1.26181 23.9624 1.58582 24.4183 2.23115 24.7663L14.1405 31.1983C15.4378 31.8983 17.5445 31.8984 18.8418 31.1997L30.7538 24.765C31.3858 24.425 31.7085 23.981 31.7258 23.5344L31.7551 13.157" stroke="#D7926D" stroke-width="1.5" stroke-miterlimit="79.8403" stroke-linecap="round" stroke-linejoin="round"/>
<path d="M16.5156 31.4375V23.4775" stroke="#D7926D" stroke-width="1.5" stroke-miterlimit="79.8403" stroke-linecap="round" stroke-linejoin="round"/>
<path d="M18.7188 12.3378L18.7587 4.01773C18.7587 1.9084 20.2693 0.54841 22.3293 1.70841C22.4573 1.79774 22.588 1.90179 22.716 2.02579" stroke="#D7926D" stroke-width="1.5" stroke-miterlimit="79.8403" stroke-linecap="round" stroke-linejoin="round"/>
<path d="M23.7188 14.3378L23.7587 6.01777C23.7587 3.90844 25.2693 2.54841 27.3293 3.70841C27.7947 4.03107 28.3027 4.56177 28.5493 5.48844" stroke="#D7926D" stroke-width="1.5" stroke-miterlimit="79.8403" stroke-linecap="round" stroke-linejoin="round"/>
<path d="M23.6784 11.6912L19.0078 9.17383" stroke="#D7926D" stroke-width="1.5" stroke-miterlimit="79.8403" stroke-linecap="round" stroke-linejoin="round"/>
<path d="M12.6547 2.62012C10.6974 4.35079 11.0467 5.97746 12.5654 7.46546C14.3054 9.39746 13.932 10.5868 12.6227 12.2708" stroke="#D7926D" stroke-width="1.5" stroke-miterlimit="79.8403" stroke-linecap="round" stroke-linejoin="round"/>
<path d="M8.69374 2.58008C6.7364 4.31074 7.08574 5.93745 8.6044 7.42545C10.3444 9.35745 9.97107 10.5468 8.66173 12.2308" stroke="#D7926D" stroke-width="1.5" stroke-miterlimit="79.8403" stroke-linecap="round" stroke-linejoin="round"/>
<path d="M12.1953 15.5169L15.1153 16.9569C16.1993 17.3542 17.2566 17.4155 18.2753 16.9569L21.3833 15.4102" stroke="#D7926D" stroke-width="1.5" stroke-miterlimit="79.8403" stroke-linecap="round" stroke-linejoin="round"/>
</g>
<defs>
<clipPath id="clip0_1614_372">
<rect width="32" height="32" fill="white" transform="translate(0.5 0.5)"/>
</clipPath>
</defs>
</svg>
