<svg width="32" height="32" viewBox="0 0 32 32" fill="none" xmlns="http://www.w3.org/2000/svg">
<path d="M25.2795 5.11108H6.717C6.29063 5.11108 5.88173 5.28046 5.58024 5.58195C5.27875 5.88343 5.10938 6.29234 5.10938 6.71871V25.2812C5.10938 25.7076 5.27875 26.1165 5.58024 26.418C5.88173 26.7195 6.29063 26.8889 6.717 26.8889H25.2795C25.7059 26.8889 26.1148 26.7195 26.4163 26.418C26.7178 26.1165 26.8872 25.7076 26.8872 25.2812V6.71871C26.8872 6.29234 26.7178 5.88343 26.4163 5.58195C26.1148 5.28046 25.7059 5.11108 25.2795 5.11108ZM11.6004 23.663H8.32613V13.2626H11.6004V23.663ZM9.96098 11.8214C9.58958 11.8193 9.22711 11.7072 8.91934 11.4993C8.61156 11.2914 8.37227 10.997 8.23165 10.6532C8.09104 10.3095 8.05541 9.93177 8.12925 9.56777C8.2031 9.20378 8.38312 8.86982 8.64659 8.60803C8.91006 8.34625 9.24517 8.16838 9.60963 8.09687C9.97409 8.02536 10.3516 8.06342 10.6944 8.20624C11.0373 8.34906 11.3301 8.59024 11.5361 8.89934C11.742 9.20844 11.8517 9.57162 11.8514 9.94303C11.8549 10.1917 11.8083 10.4385 11.7144 10.6688C11.6205 10.899 11.4812 11.108 11.3048 11.2833C11.1284 11.4586 10.9185 11.5966 10.6876 11.689C10.4567 11.7815 10.2096 11.8265 9.96098 11.8214ZM23.6689 23.6721H20.3962V17.9902C20.3962 16.3145 19.6839 15.7973 18.7643 15.7973C17.7934 15.7973 16.8406 16.5293 16.8406 18.0326V23.6721H13.5664V13.2702H16.7151V14.7115H16.7575C17.0735 14.0717 18.1806 12.9783 19.8699 12.9783C21.6968 12.9783 23.6704 14.0627 23.6704 17.2386L23.6689 23.6721Z" fill="#4E8580"/>
</svg>
