<svg width="24" height="24" viewBox="0 0 24 24" fill="none" xmlns="http://www.w3.org/2000/svg">
<path d="M11.3311 18.9305L12 19.5325L12.6689 18.9305C12.9277 18.698 18.9951 13.177 18.9951 7.9954C19 7.07365 18.8227 6.16002 18.4734 5.30702C18.1241 4.45402 17.6096 3.67847 16.9596 3.02495C16.3096 2.37143 15.5368 1.85283 14.6856 1.49895C13.8345 1.14507 12.9219 0.962891 12.0001 0.962891C11.0783 0.962891 10.1657 1.14507 9.31455 1.49895C8.46343 1.85283 7.69065 2.37143 7.04061 3.02495C6.39058 3.67847 5.87611 4.45402 5.52679 5.30702C5.17746 6.16002 5.00017 7.07365 5.0051 7.9954C5.0049 13.177 11.0723 18.698 11.3311 18.9305ZM12 1.9998C13.5895 2.00165 15.1134 2.63394 16.2373 3.75794C17.3612 4.88195 17.9934 6.40588 17.9951 7.9954C17.9951 12.7472 12.0614 18.132 12 18.1872C11.94 18.1334 6.0049 12.7475 6.0049 7.9954C6.00662 6.40588 6.63878 4.88195 7.76269 3.75794C8.88661 2.63394 10.4105 2.00165 12 1.9998ZM4 21.9998V22.9998H20V21.9998H4ZM13.5 7.9998C13.5 7.70313 13.412 7.41312 13.2472 7.16644C13.0824 6.91977 12.8481 6.72751 12.574 6.61398C12.2999 6.50045 11.9983 6.47074 11.7074 6.52862C11.4164 6.5865 11.1491 6.72936 10.9393 6.93914C10.7296 7.14892 10.5867 7.41619 10.5288 7.70716C10.4709 7.99813 10.5006 8.29973 10.6142 8.57382C10.7277 8.84791 10.92 9.08218 11.1666 9.247C11.4133 9.41183 11.7033 9.4998 12 9.4998C12.3978 9.4998 12.7794 9.34176 13.0607 9.06046C13.342 8.77915 13.5 8.39762 13.5 7.9998ZM11.4 7.9998C11.4 7.88113 11.4352 7.76513 11.5011 7.66646C11.567 7.56779 11.6608 7.49088 11.7704 7.44547C11.88 7.40006 12.0007 7.38818 12.1171 7.41133C12.2334 7.43448 12.3404 7.49162 12.4243 7.57553C12.5082 7.65945 12.5653 7.76636 12.5885 7.88274C12.6116 7.99913 12.5997 8.11977 12.5543 8.22941C12.5089 8.33904 12.432 8.43275 12.3333 8.49868C12.2347 8.56461 12.1187 8.5998 12 8.5998C11.8409 8.59961 11.6884 8.53634 11.5759 8.42386C11.4635 8.31138 11.4002 8.15887 11.4 7.9998Z" fill="#1A1A1A"/>
</svg>
