<svg width="24" height="24" viewBox="0 0 24 24" fill="none" xmlns="http://www.w3.org/2000/svg">
<path d="M12.0963 0.888916C8.91058 0.888916 6.32812 3.46716 6.32812 6.64748C6.32812 9.82789 8.91058 12.4063 12.0963 12.4063C15.282 12.4063 17.8644 9.82789 17.8644 6.64748C17.8644 3.46716 15.282 0.888916 12.0963 0.888916ZM12.0963 9.02811C10.7794 9.02811 9.71185 7.96223 9.71185 6.64756C9.71185 5.3329 10.7794 4.2671 12.0963 4.2671C13.4131 4.2671 14.4807 5.3329 14.4807 6.64756C14.4807 7.96223 13.4131 9.02811 12.0963 9.02811Z" fill="#4E8580"/>
<path d="M14.1336 16.9883C16.4429 16.5187 17.8267 15.4269 17.8999 15.3684C18.5756 14.8273 18.6842 13.8419 18.1422 13.1672C17.6004 12.4926 16.6134 12.3842 15.9375 12.9252C15.9232 12.9367 14.4473 14.067 12.0189 14.0687C9.59055 14.067 8.08342 12.9367 8.06914 12.9252C7.39325 12.3842 6.40625 12.4926 5.86442 13.1672C5.3225 13.8419 5.43105 14.8273 6.10677 15.3684C6.18098 15.4278 7.62191 16.548 9.99585 17.0066L6.68732 20.4585C6.08605 21.081 6.10413 22.0722 6.72768 22.6725C7.03203 22.9655 7.42429 23.1111 7.81622 23.1111C8.22713 23.1111 8.63764 22.9508 8.94537 22.6321L12.019 19.3634L15.403 22.6533C16.0162 23.2644 17.0091 23.2635 17.621 22.6516C18.233 22.0396 18.2323 21.0482 17.6193 20.4372L14.1336 16.9883Z" fill="#4E8580"/>
<path d="M12.0167 14.0686C12.0129 14.0686 12.0204 14.0687 12.0167 14.0688C12.013 14.0687 12.0205 14.0686 12.0167 14.0686Z" fill="#4E8580"/>
</svg>
