<svg width="33" height="34" viewBox="0 0 33 34" fill="none" xmlns="http://www.w3.org/2000/svg">
<path fill-rule="evenodd" clip-rule="evenodd" d="M2.23438 26.1322C2.23438 27.5442 3.68237 27.5495 4.34104 26.9388C7.6917 24.3375 9.74771 22.9842 16.4664 22.9842C23.1877 22.9842 25.2997 24.3375 28.6504 26.9388C29.3091 27.5495 30.7571 27.5442 30.7571 26.1322V8.50282C30.7571 7.09082 29.3091 7.08548 28.6504 7.69615C25.2997 10.2975 23.1877 11.6508 16.4664 11.6508C9.74771 11.6508 7.6917 10.2975 4.34104 7.69615C3.68237 7.08548 2.23438 7.09082 2.23438 8.50282V26.1322Z" stroke="#D7926D" stroke-width="1.5" stroke-miterlimit="79.8403" stroke-linecap="round" stroke-linejoin="round"/>
<path d="M11.125 14.8115V22.8115" stroke="#D7926D" stroke-width="1.5" stroke-miterlimit="79.8403" stroke-linecap="round" stroke-linejoin="round"/>
<path d="M21.75 14.8115V22.8115" stroke="#D7926D" stroke-width="1.5" stroke-miterlimit="79.8403" stroke-linecap="round" stroke-linejoin="round"/>
</svg>
