<svg width="33" height="34" viewBox="0 0 33 34" fill="none" xmlns="http://www.w3.org/2000/svg">
<g clip-path="url(#clip0_1614_385)">
<path d="M3.5625 31.4395L21.4358 31.3582C23.2971 31.4249 24.3198 30.5355 24.6918 29.2969" stroke="#D7926D" stroke-width="1.5" stroke-miterlimit="79.8403" stroke-linecap="round" stroke-linejoin="round"/>
<path d="M18.4138 19.4023L5.25781 19.4237" stroke="#D7926D" stroke-width="1.5" stroke-miterlimit="79.8403" stroke-linecap="round" stroke-linejoin="round"/>
<path d="M12.5168 29.8361C13.5795 27.7015 14.0128 25.5321 12.6502 23.2641C11.9662 22.7721 11.6222 21.9735 11.8075 20.9775" stroke="#D7926D" stroke-width="1.5" stroke-miterlimit="79.8403" stroke-linecap="round" stroke-linejoin="round"/>
<path d="M15.1562 30.4571C17.0762 27.1877 17.2709 24.2184 15.8962 21.4971" stroke="#D7926D" stroke-width="1.5" stroke-miterlimit="79.8403" stroke-linecap="round" stroke-linejoin="round"/>
<path d="M12.0078 19.193C12.8091 17.4996 14.1078 16.0303 15.6771 14.685C16.7331 13.825 17.7904 13.4223 18.8438 14.777L20.1958 17.0997L23.6291 17.209C24.8544 17.2797 25.3064 19.1717 23.7344 19.4397L20.4344 19.341" stroke="#D7926D" stroke-width="1.5" stroke-miterlimit="79.8403" stroke-linecap="round" stroke-linejoin="round"/>
<path fill-rule="evenodd" clip-rule="evenodd" d="M17.3217 10.1477C18.2044 9.63835 19.3351 9.94104 19.8457 10.8237C20.3551 11.7064 20.0524 12.8371 19.1697 13.3478C18.2857 13.8571 17.1551 13.5544 16.6457 12.6717C16.1364 11.7877 16.4391 10.6571 17.3217 10.1477Z" stroke="#D7926D" stroke-width="1.5" stroke-miterlimit="79.8403"/>
<path d="M8.28125 28.7694L10.9865 28.2627" stroke="#D7926D" stroke-width="1.5" stroke-miterlimit="79.8403" stroke-linecap="round" stroke-linejoin="round"/>
<path d="M18.9766 26.7662L25.8553 25.4782C27.698 25.2102 28.5446 24.1502 28.6886 22.8662" stroke="#D7926D" stroke-width="1.5" stroke-miterlimit="79.8403" stroke-linecap="round" stroke-linejoin="round"/>
<path d="M19.3658 26.2237L19.9818 24.2983C20.2085 23.205 19.5045 22.425 18.3125 21.709" stroke="#D7926D" stroke-width="1.5" stroke-miterlimit="79.8403" stroke-linecap="round" stroke-linejoin="round"/>
<path d="M26.8218 15.0249C26.8218 12.7289 26.3978 12.6369 25.2404 11.3249L15.8711 2.41955C14.4831 1.19422 13.9458 1.23157 12.7338 2.4449L4.33781 10.4836C2.86847 11.8436 2.25914 12.1316 2.25914 14.6569L2.25781 26.4183C2.25781 27.0223 2.60848 27.5076 3.23648 27.5076H6.08447" stroke="#D7926D" stroke-width="1.5" stroke-miterlimit="79.8403" stroke-linecap="round" stroke-linejoin="round"/>
</g>
<defs>
<clipPath id="clip0_1614_385">
<rect width="32" height="33" fill="white" transform="translate(0.5 0.5)"/>
</clipPath>
</defs>
</svg>
