<svg width="36" height="36" viewBox="0 0 36 36" fill="none" xmlns="http://www.w3.org/2000/svg">
<path d="M24.7978 20.3709L20.8352 24.333C16.8719 22.3435 13.6566 19.1281 11.6671 15.165L15.6293 11.203L11.3001 2.93799L7.65884 4.10259C6.07751 4.5913 4.73403 5.64993 3.88905 7.07311C3.04407 8.49631 2.75781 10.1826 3.08579 11.8049C4.22022 16.9717 6.81503 21.7039 10.5615 25.4385C14.296 29.1849 19.0282 31.7797 24.1951 32.9142C25.8175 33.2425 27.5042 32.9565 28.9277 32.1114C30.3511 31.2664 31.4099 29.9227 31.8988 28.3411L33.0634 24.6999L24.7978 20.3709ZM30.4702 27.885C30.0919 29.1085 29.275 30.1492 28.1762 30.8071C27.0775 31.4652 25.7744 31.6941 24.5173 31.4499C19.633 30.3688 15.1592 27.9154 11.622 24.3783C8.08488 20.841 5.63156 16.3671 4.55069 11.4829C4.30652 10.2258 4.53534 8.92273 5.19323 7.82401C5.85111 6.72529 6.89168 5.90833 8.11514 5.52999L10.555 4.74999L13.7892 10.921L10.6065 14.1035L9.83654 14.8735L10.3302 15.844C12.4634 20.0908 15.9092 23.5366 20.1562 25.6699L21.1267 26.1636L21.8966 25.3936L25.0792 22.2109L31.2505 25.4446L30.4702 27.885ZM24.7502 14.9999H26.2502C26.2484 13.6081 25.6948 12.2737 24.7106 11.2895C23.7265 10.3053 22.3921 9.7516 21.0002 9.74994V11.2499C21.9944 11.251 22.9477 11.6464 23.6507 12.3494C24.3538 13.0525 24.7492 14.0057 24.7502 14.9999ZM30.7502 14.9999H32.2502C32.2469 12.0173 31.0606 9.15769 28.9514 7.04863C26.8424 4.93956 23.9828 3.75324 21.0002 3.74994V5.24994C23.5852 5.25291 26.0633 6.2811 27.8912 8.10894C29.719 9.93676 30.7472 12.415 30.7502 14.9999Z" fill="white"/>
</svg>
