<svg width="24" height="25" viewBox="0 0 24 25" fill="none" xmlns="http://www.w3.org/2000/svg">
<path d="M3 16.9086C4.146 16.3996 5.454 16.3996 6.6 16.9086C7.746 17.4176 9.054 17.4176 10.2 16.9086C11.346 16.3996 12.654 16.3996 13.8 16.9086C14.946 17.4176 16.254 17.4176 17.4 16.9086C18.546 16.3996 19.854 16.3996 21 16.9086" stroke="#7A8084" stroke-width="1.5" stroke-linecap="round" stroke-linejoin="round"/>
<path d="M8 8.29053H16" stroke="#7A8084" stroke-width="1.5" stroke-linecap="round" stroke-linejoin="round"/>
<path d="M8 12.2905H16" stroke="#7A8084" stroke-width="1.5" stroke-linecap="round" stroke-linejoin="round"/>
<path d="M16 14.2905V4.79053C16 3.96253 16.672 3.29053 17.5 3.29053V3.29053C18.328 3.29053 19 3.96253 19 4.79053" stroke="#7A8084" stroke-width="1.5" stroke-linecap="round" stroke-linejoin="round"/>
<path d="M8 14.2905V4.79053C8 3.96253 8.672 3.29053 9.5 3.29053V3.29053C10.328 3.29053 11 3.96253 11 4.79053" stroke="#7A8084" stroke-width="1.5" stroke-linecap="round" stroke-linejoin="round"/>
<path d="M3 20.9086C4.146 20.3996 5.454 20.3996 6.6 20.9086C7.746 21.4176 9.054 21.4176 10.2 20.9086C11.346 20.3996 12.654 20.3996 13.8 20.9086C14.946 21.4176 16.254 21.4176 17.4 20.9086C18.546 20.3996 19.854 20.3996 21 20.9086" stroke="#7A8084" stroke-width="1.5" stroke-linecap="round" stroke-linejoin="round"/>
</svg>
