<svg width="33" height="34" viewBox="0 0 33 34" fill="none" xmlns="http://www.w3.org/2000/svg">
<g clip-path="url(#clip0_1614_315)">
<path d="M4.25115 24.9329L8.06182 18.2636C9.12449 16.3516 8.44314 13.3009 6.76314 11.1689C5.15914 12.3929 4.06048 13.1822 2.69648 12.9742C0.904479 12.5076 1.06181 11.2489 1.73382 9.07424C2.06315 8.23824 2.70315 6.89291 3.23382 6.17424C4.72582 3.76891 7.68049 3.22491 10.1205 4.78757C12.2285 5.89291 14.7392 10.4409 16.2418 12.7702L22.1165 12.7649C25.0138 9.26891 30.2098 10.3542 31.6672 14.6902C29.3538 15.5222 26.9912 15.4516 24.9552 14.7942" stroke="#D7926D" stroke-width="1.5" stroke-miterlimit="79.8403" stroke-linecap="round" stroke-linejoin="round"/>
<path d="M2.13281 24.0508C10.6782 30.8148 22.8395 31.4948 31.0275 24.0508" stroke="#D7926D" stroke-width="1.5" stroke-miterlimit="79.8403" stroke-linecap="round" stroke-linejoin="round"/>
<path d="M25.0225 14.877C24.8745 15.6477 25.0385 16.541 25.4372 17.529L28.9478 25.3064" stroke="#D7926D" stroke-width="1.5" stroke-miterlimit="79.8403" stroke-linecap="round" stroke-linejoin="round"/>
<path d="M8.39062 26.5185C13.1999 19.3118 20.7266 20.0478 25.3399 26.5185" stroke="#D7926D" stroke-width="1.5" stroke-miterlimit="79.8403" stroke-linecap="round" stroke-linejoin="round"/>
<path d="M13.6668 9.44434L11.6641 10.8443" stroke="#D7926D" stroke-width="1.5" stroke-miterlimit="79.8403" stroke-linecap="round" stroke-linejoin="round"/>
<path d="M11.3386 6.52539L9.33594 7.92539" stroke="#D7926D" stroke-width="1.5" stroke-miterlimit="79.8403" stroke-linecap="round" stroke-linejoin="round"/>
</g>
<defs>
<clipPath id="clip0_1614_315">
<rect width="32" height="33" fill="white" transform="translate(0.5 0.5)"/>
</clipPath>
</defs>
</svg>
