<svg width="24" height="25" viewBox="0 0 24 25" fill="none" xmlns="http://www.w3.org/2000/svg">
<path d="M14 17.2905H7" stroke="#7A8084" stroke-width="1.5" stroke-linecap="round" stroke-linejoin="round"/>
<path fill-rule="evenodd" clip-rule="evenodd" d="M7 13.2905H17C19.209 13.2905 21 15.0815 21 17.2905V17.2905C21 19.4995 19.209 21.2905 17 21.2905H7C4.791 21.2905 3 19.4995 3 17.2905V17.2905C3 15.0815 4.791 13.2905 7 13.2905Z" stroke="#7A8084" stroke-width="1.5" stroke-linecap="round" stroke-linejoin="round"/>
<path d="M17 13.2905V9.29053" stroke="#7A8084" stroke-width="1.5" stroke-linecap="round" stroke-linejoin="round"/>
<path d="M16.9645 17.3255C16.9445 17.3055 16.9445 17.2745 16.9645 17.2545C16.9845 17.2345 17.0155 17.2345 17.0355 17.2545C17.0555 17.2745 17.0555 17.3055 17.0355 17.3255C17.0155 17.3455 16.9835 17.3455 16.9645 17.3255" stroke="#7A8084" stroke-width="1.5" stroke-linecap="round" stroke-linejoin="round"/>
<path d="M17 3.29053C16.241 3.29953 15.53 3.42753 14.879 3.65753C13.214 4.24553 11.955 5.50453 11.366 7.17053C11.137 7.82053 11.009 8.53153 11 9.29053" stroke="#7A8084" stroke-width="1.5" stroke-linecap="round" stroke-linejoin="round"/>
<path d="M14 9.29053C14.039 7.53453 15.244 6.32953 17 6.29053" stroke="#7A8084" stroke-width="1.5" stroke-linecap="round" stroke-linejoin="round"/>
</svg>
