<svg width="16" height="16" viewBox="0 0 16 16" fill="none" xmlns="http://www.w3.org/2000/svg">
<path d="M12.3307 2.66683H8.33073V1.66683C8.33073 1.57842 8.2956 1.49364 8.23313 1.43113C8.1706 1.36862 8.0858 1.3335 7.9974 1.3335C7.909 1.3335 7.8242 1.36862 7.76166 1.43113C7.6992 1.49364 7.66406 1.57842 7.66406 1.66683V2.66683H3.66406L0.664062 9.32956C0.872902 9.95776 1.27612 10.5032 1.81542 10.8871C2.35472 11.271 3.00214 11.4734 3.66406 11.465C4.32598 11.4734 4.97341 11.271 5.5127 10.8871C6.052 10.5032 6.45522 9.95776 6.66406 9.32956L3.96406 3.3335H7.66406V13.2868L4.66406 13.6195V14.0002H11.3307V13.6195L8.33073 13.2868V3.3335H12.0307L9.33073 9.32956C9.54686 9.9531 9.95186 10.4938 10.4895 10.8766C11.0272 11.2592 11.6708 11.4649 12.3307 11.4649C12.9907 11.4649 13.6343 11.2592 14.1719 10.8766C14.7096 10.4938 15.1146 9.9531 15.3307 9.32956L12.3307 2.66683ZM3.66406 10.7984C3.18414 10.8059 2.71258 10.6724 2.30786 10.4143C1.90315 10.1563 1.58309 9.7851 1.3874 9.34683L1.3934 9.3335H5.93473L5.94086 9.34683C5.74515 9.7851 5.42507 10.1563 5.02033 10.4144C4.61559 10.6724 4.144 10.8059 3.66406 10.7984ZM1.6936 8.66683L3.66406 4.29063L5.6346 8.66683H1.6936ZM14.3012 8.66683H10.3602L12.3307 4.29056L14.3012 8.66683ZM12.3307 10.7984C11.8508 10.8059 11.3792 10.6724 10.9745 10.4144C10.5697 10.1563 10.2497 9.7851 10.0539 9.34683L10.0601 9.3335H14.6014L14.6074 9.34683C14.4117 9.7851 14.0917 10.1563 13.6869 10.4143C13.2822 10.6724 12.8107 10.8059 12.3307 10.7984Z" fill="white"/>
<path d="M1.6936 8.66683L3.66406 4.29063L5.6346 8.66683H1.6936Z" fill="white"/>
<path d="M3.66406 10.7984C3.18414 10.8059 2.71258 10.6724 2.30786 10.4143C1.90315 10.1563 1.58309 9.7851 1.3874 9.34683L1.3934 9.3335H5.93473L5.94086 9.34683C5.74515 9.7851 5.42507 10.1563 5.02033 10.4144C4.61559 10.6724 4.144 10.8059 3.66406 10.7984Z" fill="white"/>
<path d="M14.3012 8.66683H10.3602L12.3307 4.29056L14.3012 8.66683Z" fill="white"/>
<path d="M12.3307 10.7984C11.8508 10.8059 11.3792 10.6724 10.9745 10.4144C10.5697 10.1563 10.2497 9.7851 10.0539 9.34683L10.0601 9.3335H14.6014L14.6074 9.34683C14.4117 9.7851 14.0917 10.1563 13.6869 10.4143C13.2822 10.6724 12.8107 10.8059 12.3307 10.7984Z" fill="white"/>
</svg>
