<svg width="24" height="24" viewBox="0 0 24 24" fill="none" xmlns="http://www.w3.org/2000/svg">
<path d="M21.8535 21.1465L15.9935 15.2865C17.3722 13.7241 18.0887 11.6864 17.9912 9.60491C17.8938 7.52346 16.99 5.56165 15.4714 4.13489C13.9527 2.70813 11.9384 1.92845 9.85491 1.96094C7.77143 1.99343 5.78239 2.83555 4.30897 4.30897C2.83555 5.78239 1.99343 7.77143 1.96094 9.85491C1.92845 11.9384 2.70813 13.9527 4.13489 15.4714C5.56165 16.99 7.52346 17.8938 9.60491 17.9912C11.6864 18.0887 13.7241 17.3722 15.2865 15.9935L21.1465 21.8535L21.8535 21.1465ZM9.99998 17C8.61546 17 7.26208 16.5894 6.11094 15.8202C4.9598 15.0511 4.06259 13.9578 3.53278 12.6787C3.00296 11.3997 2.86434 9.99217 3.13444 8.6343C3.40453 7.27643 4.07122 6.02915 5.05018 5.05018C6.02915 4.07122 7.27643 3.40453 8.6343 3.13444C9.99217 2.86434 11.3997 3.00296 12.6787 3.53278C13.9578 4.06259 15.0511 4.9598 15.8202 6.11094C16.5894 7.26208 17 8.61546 17 9.99998C16.9979 11.8558 16.2597 13.6351 14.9474 14.9474C13.6351 16.2597 11.8558 16.9979 9.99998 17Z" fill="#1A1A1A"/>
</svg>
