<svg width="24" height="25" viewBox="0 0 24 25" fill="none" xmlns="http://www.w3.org/2000/svg">
<path d="M12.7508 12.6929V3.5H11.2508V12.6929C10.6301 12.8554 10.0808 13.219 9.68869 13.7269C9.29665 14.2349 9.08398 14.8584 9.08398 15.5C9.08398 16.1416 9.29665 16.7651 9.68869 17.2731C10.0808 17.781 10.6301 18.1446 11.2508 18.3071V21.5H12.7508V18.3071C13.3715 18.1446 13.9209 17.781 14.3129 17.2731C14.705 16.7651 14.9176 16.1416 14.9176 15.5C14.9176 14.8584 14.705 14.2349 14.3129 13.7269C13.9209 13.219 13.3715 12.8554 12.7508 12.6929ZM12.0008 17.05C11.6943 17.05 11.3946 16.9591 11.1397 16.7888C10.8848 16.6185 10.6861 16.3764 10.5688 16.0932C10.4515 15.8099 10.4208 15.4983 10.4806 15.1976C10.5404 14.8969 10.688 14.6208 10.9048 14.404C11.1216 14.1872 11.3978 14.0396 11.6984 13.9798C11.9991 13.92 12.3108 13.9507 12.594 14.068C12.8772 14.1853 13.1193 14.384 13.2896 14.6389C13.4599 14.8938 13.5508 15.1934 13.5508 15.5C13.5504 15.9109 13.3869 16.3049 13.0963 16.5955C12.8058 16.8861 12.4118 17.0495 12.0008 17.05ZM19.7508 6.6929V3.5H18.2508V6.6929C17.6301 6.8554 17.0808 7.21904 16.6887 7.72694C16.2967 8.23485 16.084 8.85838 16.084 9.5C16.084 10.1416 16.2967 10.7651 16.6887 11.2731C17.0808 11.781 17.6301 12.1446 18.2508 12.3071V21.5H19.7508V12.3071C20.3715 12.1446 20.9209 11.781 21.3129 11.2731C21.705 10.7651 21.9176 10.1416 21.9176 9.5C21.9176 8.85838 21.705 8.23485 21.3129 7.72694C20.9209 7.21904 20.3715 6.8554 19.7508 6.6929ZM19.0008 11.05C18.6943 11.05 18.3946 10.9591 18.1397 10.7888C17.8848 10.6185 17.6861 10.3764 17.5688 10.0932C17.4515 9.80993 17.4208 9.49828 17.4806 9.19761C17.5404 8.89694 17.688 8.62076 17.9048 8.40398C18.1216 8.18721 18.3978 8.03959 18.6984 7.97978C18.9991 7.91998 19.3108 7.95067 19.594 8.06799C19.8772 8.1853 20.1193 8.38397 20.2896 8.63887C20.4599 8.89376 20.5508 9.19344 20.5508 9.5C20.5504 9.91095 20.3869 10.3049 20.0963 10.5955C19.8058 10.8861 19.4118 11.0496 19.0008 11.05ZM5.7508 6.6929V3.5H4.2508V6.6929C3.63009 6.8554 3.08075 7.21904 2.68869 7.72694C2.29664 8.23485 2.08398 8.85838 2.08398 9.5C2.08398 10.1416 2.29664 10.7651 2.68869 11.2731C3.08075 11.781 3.63009 12.1446 4.2508 12.3071V21.5H5.7508V12.3071C6.3715 12.1446 6.92084 11.781 7.3129 11.2731C7.70495 10.7651 7.91761 10.1416 7.91761 9.5C7.91761 8.85838 7.70495 8.23485 7.3129 7.72694C6.92084 7.21904 6.3715 6.8554 5.7508 6.6929ZM5.0008 11.05C4.69423 11.05 4.39456 10.9591 4.13966 10.7888C3.88477 10.6185 3.6861 10.3764 3.56878 10.0932C3.45147 9.80993 3.42077 9.49828 3.48058 9.19761C3.54039 8.89694 3.68801 8.62076 3.90478 8.40398C4.12155 8.18721 4.39773 8.03959 4.69841 7.97978C4.99908 7.91998 5.31073 7.95067 5.59395 8.06799C5.87718 8.1853 6.11926 8.38397 6.28957 8.63887C6.45989 8.89376 6.5508 9.19344 6.5508 9.5C6.55035 9.91095 6.3869 10.3049 6.09631 10.5955C5.80573 10.8861 5.41174 11.0496 5.0008 11.05Z" fill="#D7926D"/>
</svg>
