<svg width="24" height="24" viewBox="0 0 24 24" fill="none" xmlns="http://www.w3.org/2000/svg">
<path d="M18.0005 16C17.5452 16.0012 17.0962 16.1066 16.6878 16.3081C16.2795 16.5096 15.9227 16.802 15.6448 17.1627L7.83174 12.9521C8.05676 12.3373 8.05676 11.6627 7.83174 11.0479L15.6448 6.83731C16.083 7.39097 16.7033 7.77137 17.3955 7.91092C18.0876 8.05048 18.8068 7.94015 19.4253 7.59954C20.0438 7.25893 20.5215 6.71009 20.7736 6.05055C21.0257 5.391 21.0358 4.66344 20.8021 3.99714C20.5685 3.33084 20.1062 2.76895 19.4974 2.41129C18.8886 2.05363 18.1727 1.92336 17.477 2.04363C16.7812 2.1639 16.1506 2.52692 15.6972 3.06819C15.2438 3.60946 14.997 4.29394 15.0005 5.00001C15.0043 5.32621 15.0617 5.64958 15.1705 5.95711L7.35904 10.1671C6.97644 9.67154 6.44839 9.30808 5.84887 9.12767C5.24936 8.94726 4.60841 8.95893 4.01586 9.16105C3.42331 9.36316 2.90884 9.7456 2.54454 10.2548C2.18024 10.7639 1.98438 11.3743 1.98438 12.0004C1.98438 12.6265 2.18024 13.2369 2.54454 13.746C2.90884 14.2552 3.42331 14.6377 4.01586 14.8398C4.60841 15.0419 5.24936 15.0536 5.84887 14.8732C6.44839 14.6927 6.97644 14.3293 7.35904 13.8337L15.1705 18.0437C14.9698 18.6443 14.9648 19.2931 15.1563 19.8968C15.3478 20.5004 15.7258 21.0277 16.2361 21.4028C16.7463 21.7779 17.3624 21.9815 17.9957 21.9842C18.6289 21.9869 19.2467 21.7886 19.7601 21.4178C20.2735 21.0471 20.656 20.523 20.8526 19.921C21.0492 19.319 21.0498 18.6702 20.8541 18.0679C20.6585 17.4656 20.2769 16.9409 19.7641 16.5693C19.2513 16.1977 18.6338 15.9984 18.0005 16ZM18.0005 3.00001C18.3961 3.00001 18.7828 3.11731 19.1117 3.33707C19.4406 3.55683 19.6969 3.86919 19.8483 4.23464C19.9997 4.6001 20.0393 5.00223 19.9621 5.39019C19.8849 5.77815 19.6945 6.13452 19.4148 6.41422C19.1351 6.69393 18.7787 6.88441 18.3907 6.96158C18.0028 7.03875 17.6006 6.99914 17.2352 6.84777C16.8697 6.69639 16.5574 6.44005 16.3376 6.11115C16.1178 5.78225 16.0005 5.39557 16.0005 5.00001C16.0012 4.46976 16.2121 3.96141 16.587 3.58647C16.9619 3.21153 17.4703 3.00062 18.0005 3.00001ZM5.00054 14C4.60496 14 4.21829 13.8827 3.88939 13.6629C3.5605 13.4432 3.30415 13.1308 3.15278 12.7654C3.00139 12.3999 2.96179 11.9978 3.03896 11.6098C3.11614 11.2219 3.30661 10.8655 3.58631 10.5858C3.86602 10.3061 4.22238 10.1156 4.61035 10.0384C4.99831 9.96127 5.40044 10.0009 5.76589 10.1523C6.13135 10.3036 6.44371 10.56 6.66348 10.8889C6.88323 11.2178 7.00054 11.6044 7.00054 12C6.99993 12.5303 6.78901 13.0386 6.41407 13.4136C6.03913 13.7885 5.53078 13.9994 5.00054 14ZM18.0005 21C17.605 21 17.2183 20.8827 16.8894 20.6629C16.5605 20.4432 16.3042 20.1308 16.1528 19.7654C16.0014 19.3999 15.9618 18.9978 16.039 18.6098C16.1161 18.2219 16.3066 17.8655 16.5863 17.5858C16.866 17.3061 17.2224 17.1156 17.6104 17.0384C17.9983 16.9613 18.4005 17.0009 18.7659 17.1523C19.1314 17.3036 19.4437 17.56 19.6635 17.8889C19.8832 18.2178 20.0005 18.6044 20.0005 19C19.9999 19.5303 19.789 20.0386 19.4141 20.4136C19.0391 20.7885 18.5308 20.9994 18.0005 21Z" fill="white"/>
</svg>
