<svg width="24" height="25" viewBox="0 0 24 25" fill="none" xmlns="http://www.w3.org/2000/svg">
<path d="M9 8.29053V8.29053C9 5.52953 11.239 3.29053 14 3.29053V3.29053C16.761 3.29053 19 5.52953 19 8.29053V21.2905" stroke="#7A8084" stroke-width="1.5" stroke-linecap="round" stroke-linejoin="round"/>
<path fill-rule="evenodd" clip-rule="evenodd" d="M11.4156 13.0385H6.58358C5.50358 13.0385 4.74058 11.9805 5.08258 10.9555V10.9555C5.61258 9.36353 7.10158 8.29053 8.77958 8.29053H9.21958C10.8966 8.29053 12.3866 9.36353 12.9166 10.9555V10.9555C13.2586 11.9805 12.4956 13.0385 11.4156 13.0385V13.0385Z" stroke="#7A8084" stroke-width="1.5" stroke-linecap="round" stroke-linejoin="round"/>
<path d="M9 20.2905V21.2905" stroke="#7A8084" stroke-width="1.5" stroke-linecap="round" stroke-linejoin="round"/>
<path d="M9 17.2905V16.2905" stroke="#7A8084" stroke-width="1.5" stroke-linecap="round" stroke-linejoin="round"/>
<path d="M14.9996 19.9404L14.4496 19.1104" stroke="#7A8084" stroke-width="1.5" stroke-linecap="round" stroke-linejoin="round"/>
<path d="M12.2406 15.7906L12.7906 16.6206" stroke="#7A8084" stroke-width="1.5" stroke-linecap="round" stroke-linejoin="round"/>
<path d="M5.76133 15.7906L5.21133 16.6206" stroke="#7A8084" stroke-width="1.5" stroke-linecap="round" stroke-linejoin="round"/>
<path d="M3.55039 19.1104L3.00039 19.9404" stroke="#7A8084" stroke-width="1.5" stroke-linecap="round" stroke-linejoin="round"/>
</svg>
