<svg width="24" height="25" viewBox="0 0 24 25" fill="none" xmlns="http://www.w3.org/2000/svg">
<path fill-rule="evenodd" clip-rule="evenodd" d="M3.5 16.7905V16.2228C3.5 14.7624 3.67911 13.3074 4.03333 11.8905V11.8905C4.38755 10.4737 4.56667 9.01868 4.56667 7.5582V5.3572C4.56667 5.0743 4.67905 4.80299 4.87908 4.60295C5.07912 4.40291 5.35043 4.29053 5.63333 4.29053H10.9667C11.2496 4.29053 11.5209 4.40291 11.7209 4.60295C11.921 4.80299 12.0333 5.0743 12.0333 5.3572V7.12041C12.0333 9.85749 14.0459 12.178 16.7555 12.5651L16.9243 12.5892C18.4022 12.8004 19.5 14.0661 19.5 15.5591V16.7905C19.5 17.619 18.8284 18.2905 18 18.2905H15.0503C14.4845 18.2905 13.9419 18.0658 13.5418 17.6657L12.6582 16.782C12.2581 16.382 11.7155 16.1572 11.1497 16.1572H9.9C9.3109 16.1572 8.83334 16.6348 8.83333 17.2239V17.2239C8.83333 17.5068 8.72095 17.7781 8.52092 17.9781C8.32088 18.1781 8.04957 18.2905 7.76667 18.2905H5C4.17157 18.2905 3.5 17.619 3.5 16.7905Z" stroke="#7A8084" stroke-width="1.5" stroke-linecap="round" stroke-linejoin="round"/>
<path d="M6 18.2905V21.2905" stroke="#7A8084" stroke-width="1.5" stroke-linecap="round" stroke-linejoin="round"/>
<path d="M16.5 18.2905V21.2905" stroke="#7A8084" stroke-width="1.5" stroke-linecap="round" stroke-linejoin="round"/>
<path d="M21 19.2905C21 20.3951 20.1046 21.2905 19 21.2905H3" stroke="#7A8084" stroke-width="1.5" stroke-linecap="round" stroke-linejoin="round"/>
<path d="M12.0331 7.26514H4.56641" stroke="#7A8084" stroke-width="1.5" stroke-linecap="round" stroke-linejoin="round"/>
</svg>
