<svg width="33" height="33" viewBox="0 0 33 33" fill="none" xmlns="http://www.w3.org/2000/svg">
<path d="M12.5226 2.25488C11.748 3.11354 10.2812 4.28824 10.2812 7.3389V30.7376H12.5226" stroke="#D7926D" stroke-width="1.5" stroke-miterlimit="79.8403" stroke-linecap="round" stroke-linejoin="round"/>
<path d="M12.5234 2.25488C13.2968 3.11354 14.7634 4.28824 14.7634 7.3389V30.7376H12.5234" stroke="#D7926D" stroke-width="1.5" stroke-miterlimit="79.8403" stroke-linecap="round" stroke-linejoin="round"/>
<path d="M10.5469 17.0684C11.7989 16.0057 13.1296 15.9697 14.5469 17.0684" stroke="#D7926D" stroke-width="1.5" stroke-miterlimit="79.8403" stroke-linecap="round" stroke-linejoin="round"/>
<path d="M20.5225 2.25488C19.7479 3.11354 18.2812 4.28824 18.2812 7.3389V30.7376H20.5225" stroke="#D7926D" stroke-width="1.5" stroke-miterlimit="79.8403" stroke-linecap="round" stroke-linejoin="round"/>
<path d="M20.5234 2.25488C21.2968 3.11354 22.7634 4.28824 22.7634 7.3389V30.7376H20.5234" stroke="#D7926D" stroke-width="1.5" stroke-miterlimit="79.8403" stroke-linecap="round" stroke-linejoin="round"/>
<path d="M18.5469 17.0684C19.7989 16.0057 21.1296 15.9697 22.5469 17.0684" stroke="#D7926D" stroke-width="1.5" stroke-miterlimit="79.8403" stroke-linecap="round" stroke-linejoin="round"/>
<path d="M4.5 7.49902V29.499" stroke="#D7926D" stroke-width="1.5" stroke-miterlimit="79.8403" stroke-linecap="round" stroke-linejoin="round"/>
<path d="M3.24219 10.499H5.76485" stroke="#D7926D" stroke-width="1.5" stroke-miterlimit="79.8403" stroke-linecap="round" stroke-linejoin="round"/>
<path d="M2.5 27.4988C3.58667 26.6108 5.312 26.5855 6.5 27.4988" stroke="#D7926D" stroke-width="1.5" stroke-miterlimit="79.8403" stroke-linecap="round" stroke-linejoin="round"/>
<path d="M28.5 7.49902V29.499" stroke="#D7926D" stroke-width="1.5" stroke-miterlimit="79.8403" stroke-linecap="round" stroke-linejoin="round"/>
<path d="M27.2422 10.499H29.7648" stroke="#D7926D" stroke-width="1.5" stroke-miterlimit="79.8403" stroke-linecap="round" stroke-linejoin="round"/>
<path d="M26.5 27.4988C27.5867 26.6108 29.312 26.5855 30.5 27.4988" stroke="#D7926D" stroke-width="1.5" stroke-miterlimit="79.8403" stroke-linecap="round" stroke-linejoin="round"/>
<path d="M10.5469 20.4463C11.7989 21.509 13.1296 21.545 14.5469 20.4463" stroke="#D7926D" stroke-width="1.5" stroke-miterlimit="79.8403" stroke-linecap="round" stroke-linejoin="round"/>
<path d="M18.5469 20.4463C19.7989 21.509 21.1296 21.545 22.5469 20.4463" stroke="#D7926D" stroke-width="1.5" stroke-miterlimit="79.8403" stroke-linecap="round" stroke-linejoin="round"/>
</svg>
