<svg width="33" height="33" viewBox="0 0 33 33" fill="none" xmlns="http://www.w3.org/2000/svg">
<path d="M18.7457 2.19824C16.6151 4.07557 16.9911 5.84351 18.6377 7.46484C20.5257 9.57017 20.1177 10.8609 18.6911 12.6902" stroke="#D7926D" stroke-width="1.5" stroke-miterlimit="79.8403" stroke-linecap="round" stroke-linejoin="round"/>
<path d="M28.554 2.22754C26.426 4.1102 26.8047 5.87824 28.4567 7.4969C30.3487 9.59824 29.942 10.8915 28.5194 12.7208" stroke="#D7926D" stroke-width="1.5" stroke-miterlimit="79.8403" stroke-linecap="round" stroke-linejoin="round"/>
<path d="M4.28701 23.148L8.671 12.9226C9.30967 11.436 11.859 11.236 12.471 12.9226L15.0857 18.936C15.2417 19.3546 15.591 19.7359 16.1844 19.7359H21.4337C22.2084 19.7079 22.8377 20.0893 23.327 20.8879L26.659 28.1106C27.383 30.4359 24.3844 31.8359 23.259 29.4853L20.4364 23.7973L2.375 23.8159" stroke="#D7926D" stroke-width="1.5" stroke-miterlimit="79.8403" stroke-linecap="round" stroke-linejoin="round"/>
<path d="M11.4741 23.4571L9.58075 18.6797L7.46875 23.4771" stroke="#D7926D" stroke-width="1.5" stroke-miterlimit="79.8403" stroke-linecap="round" stroke-linejoin="round"/>
<path d="M7.29688 7.45054C7.29688 5.67807 8.73374 4.24121 10.5062 4.24121C12.2786 4.24121 13.7155 5.67807 13.7155 7.45054C13.7155 9.223 12.2786 10.6599 10.5062 10.6599C8.73374 10.6599 7.29688 9.223 7.29688 7.45054Z" stroke="#D7926D" stroke-width="1.5" stroke-miterlimit="79.8403"/>
<path d="M23.554 2.22754C21.426 4.1102 21.8047 5.87824 23.4567 7.4969C25.3487 9.59824 24.942 10.8915 23.5194 12.7208" stroke="#D7926D" stroke-width="1.5" stroke-miterlimit="79.8403" stroke-linecap="round" stroke-linejoin="round"/>
</svg>
