<svg width="33" height="33" viewBox="0 0 33 33" fill="none" xmlns="http://www.w3.org/2000/svg">
<g clip-path="url(#clip0_1614_356)">
<path d="M7.88466 17.043L14.3033 12.8177L11.9673 8.30835L4.46066 7.89632C2.48733 7.89632 1.98599 4.943 4.36733 4.73633H14.0353C14.746 4.73633 15.15 4.72966 15.8087 5.61499L23.1273 20.0656" stroke="#D7926D" stroke-width="1.5" stroke-miterlimit="79.8403" stroke-linecap="round" stroke-linejoin="round"/>
<path d="M22.75 12.4346C22.75 10.1025 24.6406 8.21191 26.9727 8.21191C29.3048 8.21191 31.1954 10.1025 31.1954 12.4346C31.1954 14.7667 29.3048 16.6573 26.9727 16.6573C24.6406 16.6573 22.75 14.7667 22.75 12.4346Z" stroke="#D7926D" stroke-width="1.5" stroke-miterlimit="79.8403"/>
<path d="M1.25781 20.2895C5.57114 16.6988 10.4671 15.6362 16.5471 20.4562C22.6258 25.2762 27.4244 24.1588 31.7378 20.5668" stroke="#D7926D" stroke-width="1.5" stroke-miterlimit="79.8403" stroke-linecap="round" stroke-linejoin="round"/>
<path d="M4.79688 23.7969C7.83554 21.4355 10.9875 21.7356 15.5622 25.4556C19.9849 29.0529 24.6862 29.3435 28.0422 27.7649" stroke="#D7926D" stroke-width="1.5" stroke-miterlimit="79.8403" stroke-linecap="round" stroke-linejoin="round"/>
</g>
<defs>
<clipPath id="clip0_1614_356">
<rect width="32" height="32" fill="white" transform="translate(0.5 0.5)"/>
</clipPath>
</defs>
</svg>
