<svg width="33" height="32" viewBox="0 0 33 32" fill="none" xmlns="http://www.w3.org/2000/svg">
<path fill-rule="evenodd" clip-rule="evenodd" d="M4.42485 13.9893C11.941 10.7147 16.953 8.5558 19.4607 7.51274C26.6209 4.5346 28.1087 4.01726 29.0784 4.00018C29.2917 3.99642 29.7686 4.04928 30.0775 4.29994C30.3383 4.51159 30.4101 4.7975 30.4444 4.99817C30.4788 5.19883 30.5215 5.65596 30.4876 6.01314C30.0995 10.09 28.4206 19.9834 27.5665 24.5496C27.2051 26.4817 26.4934 27.1295 25.8045 27.1929C24.3072 27.3307 23.1703 26.2034 21.7201 25.2528C19.4509 23.7653 18.169 22.8393 15.9663 21.3878C13.4207 19.7103 15.0709 18.7884 16.5216 17.2816C16.9013 16.8873 23.4982 10.8869 23.6259 10.3426C23.6419 10.2745 23.6567 10.0207 23.5059 9.88672C23.3552 9.75272 23.1327 9.79854 22.9721 9.83498C22.7445 9.88664 19.1194 12.2827 12.0968 17.0231C11.0678 17.7297 10.1358 18.074 9.30078 18.0559C8.3802 18.036 6.60939 17.5354 5.29297 17.1075C3.67832 16.5827 2.39504 16.3052 2.50678 15.4138C2.56499 14.9495 3.20434 14.4747 4.42485 13.9893Z" fill="white"/>
</svg>
