<svg width="28" height="28" viewBox="0 0 28 28" fill="none" xmlns="http://www.w3.org/2000/svg">
<path d="M21.4164 9.98396C21.424 10.16 21.424 10.328 21.424 10.504C21.4316 15.84 17.58 22 10.5364 22C8.45892 22 6.41939 21.368 4.66797 20.184C4.97125 20.224 5.27452 20.24 5.5778 20.24C7.29889 20.24 8.97449 19.632 10.3317 18.504C8.69396 18.472 7.2534 17.344 6.75299 15.696C7.32922 15.816 7.92061 15.792 8.48167 15.624C6.69992 15.256 5.41858 13.6 5.411 11.672C5.411 11.656 5.411 11.64 5.411 11.624C5.94173 11.936 6.5407 12.112 7.14725 12.128C5.47165 10.944 4.9485 8.58396 5.96448 6.73595C7.91303 9.26396 10.779 10.792 13.8572 10.96C13.5464 9.55996 13.971 8.08796 14.9642 7.09595C16.5033 5.56795 18.9295 5.64795 20.3853 7.27195C21.242 7.09595 22.0685 6.75995 22.8191 6.28795C22.531 7.22395 21.932 8.01596 21.1359 8.51996C21.8941 8.42396 22.6371 8.20796 23.3346 7.88796C22.8191 8.70396 22.167 9.40796 21.4164 9.98396Z" fill="#4E8580"/>
</svg>
