<svg width="33" height="34" viewBox="0 0 33 34" fill="none" xmlns="http://www.w3.org/2000/svg">
<g clip-path="url(#clip0_1614_362)">
<path d="M27.1698 17.9516H5.82448C4.40695 17.9516 3.25781 16.8025 3.25781 15.3849V5.053C3.25781 3.63547 4.40695 2.48633 5.82448 2.48633H27.1698C28.5873 2.48633 29.7364 3.63547 29.7364 5.053V15.3849C29.7364 16.8025 28.5873 17.9516 27.1698 17.9516Z" stroke="#D7926D" stroke-width="1.5" stroke-miterlimit="79.8403"/>
<path d="M16.5334 20.541C18.3037 20.541 19.7388 21.9761 19.7388 23.7464C19.7388 25.5166 18.3037 26.9517 16.5334 26.9517C14.7632 26.9517 13.3281 25.5166 13.3281 23.7464C13.3281 21.9761 14.7632 20.541 16.5334 20.541Z" stroke="#D7926D" stroke-width="1.5" stroke-miterlimit="79.8403"/>
<path d="M21.3202 31.7318C21.0509 28.5345 18.7669 27.0078 16.5202 27.0078C14.3309 27.0078 11.9802 28.5251 11.7109 31.7225" stroke="#D7926D" stroke-width="1.5" stroke-miterlimit="79.8403" stroke-linecap="round" stroke-linejoin="round"/>
<path fill-rule="evenodd" clip-rule="evenodd" d="M14.2494 14.6908L20.3254 10.8588C20.8641 10.5188 20.8641 9.96554 20.3254 9.62554L14.2534 5.78686C13.7147 5.44686 13.2774 5.67753 13.2774 6.30153L13.2734 14.1748C13.2734 14.7988 13.7107 15.0308 14.2494 14.6908Z" stroke="#D7926D" stroke-width="1.5" stroke-miterlimit="79.8403"/>
<path d="M26.5334 20.541C28.3037 20.541 29.7388 21.9761 29.7388 23.7464C29.7388 25.5166 28.3037 26.9517 26.5334 26.9517C24.7632 26.9517 23.3281 25.5166 23.3281 23.7464C23.3281 21.9761 24.7632 20.541 26.5334 20.541Z" stroke="#D7926D" stroke-width="1.5" stroke-miterlimit="79.8403"/>
<path d="M31.3202 31.7318C31.0509 28.5345 28.7669 27.0078 26.5202 27.0078C24.3309 27.0078 21.9802 28.5251 21.7109 31.7225" stroke="#D7926D" stroke-width="1.5" stroke-miterlimit="79.8403" stroke-linecap="round" stroke-linejoin="round"/>
<path d="M6.53346 20.541C8.30371 20.541 9.7388 21.9761 9.7388 23.7464C9.7388 25.5166 8.30371 26.9517 6.53346 26.9517C4.7632 26.9517 3.32812 25.5166 3.32812 23.7464C3.32812 21.9761 4.7632 20.541 6.53346 20.541Z" stroke="#D7926D" stroke-width="1.5" stroke-miterlimit="79.8403"/>
<path d="M11.3203 31.7318C11.051 28.5345 8.76693 27.0078 6.52026 27.0078C4.33093 27.0078 1.98027 28.5251 1.71094 31.7225" stroke="#D7926D" stroke-width="1.5" stroke-miterlimit="79.8403" stroke-linecap="round" stroke-linejoin="round"/>
</g>
<defs>
<clipPath id="clip0_1614_362">
<rect width="32" height="33" fill="white" transform="translate(0.5 0.5)"/>
</clipPath>
</defs>
</svg>
