<svg width="24" height="24" viewBox="0 0 24 24" fill="none" xmlns="http://www.w3.org/2000/svg">
<path d="M20.6415 8.36008C20.6479 8.25758 20.6722 8.16008 20.6722 8.05608C20.6722 7.40683 20.5443 6.76394 20.2958 6.16411C20.0474 5.56428 19.6832 5.01927 19.2241 4.56018C18.765 4.1011 18.22 3.73693 17.6202 3.48849C17.0203 3.24004 16.3774 3.11217 15.7282 3.11218C14.8851 3.1174 14.0578 3.34049 13.3264 3.75978C12.5459 2.93912 11.5372 2.37135 10.4307 2.1298C9.32419 1.88826 8.17069 1.98404 7.11919 2.40478C6.06769 2.82552 5.1665 3.55188 4.53204 4.49003C3.89759 5.42819 3.559 6.53503 3.56004 7.66758C3.56032 7.86801 3.57113 8.06829 3.59244 8.26758C2.7155 8.59577 1.98178 9.2217 1.51953 10.036C1.05728 10.8503 0.895894 11.8011 1.06359 12.7223C1.23128 13.6435 1.71738 14.4765 2.43693 15.0756C3.15648 15.6748 4.0637 16.002 5.00004 16.0001H19.0001C19.9148 16.0012 20.8021 15.6884 21.5139 15.114C22.2257 14.5395 22.7189 13.7383 22.911 12.844C23.1031 11.9497 22.9826 11.0166 22.5695 10.2005C22.1565 9.38442 21.4759 8.73477 20.6415 8.36008ZM19.0001 15.0001H5.00004C4.20466 14.9992 3.44212 14.6828 2.87971 14.1204C2.3173 13.558 2.00094 12.7955 2.00004 12.0001C1.99859 11.3907 2.18451 10.7955 2.53259 10.2953C2.88067 9.79507 3.3741 9.41392 3.94604 9.20348L4.66834 8.93078L4.58734 8.16308C4.51708 7.51193 4.58478 6.85328 4.78604 6.23004C4.98729 5.6068 5.31758 5.03295 5.75539 4.54586C6.19321 4.05877 6.72872 3.66938 7.32705 3.40304C7.92538 3.13671 8.57311 2.99941 9.22804 3.00008C9.85975 2.99849 10.4851 3.12632 11.0655 3.3757C11.646 3.62509 12.1691 3.99073 12.6028 4.45008L13.1384 5.01168L13.8154 4.63218C14.3972 4.29621 15.0563 4.11703 15.7282 4.11218C16.7712 4.11246 17.7717 4.52573 18.5109 5.26163C19.25 5.99752 19.6678 6.99616 19.6727 8.03918L19.6657 8.09328C19.6557 8.16108 19.6477 8.22898 19.6434 8.29828L19.6008 8.98708L20.2297 9.27138C20.8558 9.55185 21.3667 10.0388 21.6769 10.6508C21.9871 11.2627 22.0778 11.9626 21.9338 12.6335C21.7898 13.3043 21.4199 13.9053 20.8859 14.3361C20.3519 14.7669 19.6862 15.0013 19.0001 15.0001ZM10.4901 18.9469L8.85004 19.8941V18.0001H8.15004V19.8941L6.51004 18.9469L6.16004 19.5533L7.80004 20.5001L6.16004 21.4469L6.51004 22.0533L8.15004 21.1061V23.0001H8.85004V21.1061L10.4907 22.0533L10.8407 21.4469L9.20004 20.5001L10.8401 19.5533L10.4901 18.9469ZM17.4901 18.9469L15.8501 19.8941V18.0001H15.1501V19.8941L13.5101 18.9469L13.1601 19.5533L14.8001 20.5001L13.1601 21.4469L13.5101 22.0533L15.1501 21.1061V23.0001H15.8501V21.1061L17.4907 22.0533L17.8407 21.4469L16.2001 20.5001L17.8401 19.5533L17.4901 18.9469Z" fill="black"/>
</svg>
